<svg width="2061.397607421875px" height="90.90908966064453px" xmlns="http://www.w3.org/2000/svg" viewBox="-780.6988037109375 29.545455169677737 2061.397607421875 90.90908966064453" style="background: rgba(0, 0, 0, 0);" preserveAspectRatio="xMidYMid"><defs><filter id="editing-hole" x="-100%" y="-100%" width="300%" height="300%"><feFlood flood-color="rgba(0%,0%,0%,0.726)" result="black"></feFlood><feMorphology operator="dilate" radius="2" in="SourceGraphic" result="erode"></feMorphology><feGaussianBlur in="erode" stdDeviation="4" result="blur"></feGaussianBlur><feOffset in="blur" dx="2" dy="2" result="offset"></feOffset><feComposite operator="atop" in="offset" in2="black" result="merge"></feComposite><feComposite operator="in" in="merge" in2="SourceGraphic" result="inner-shadow"></feComposite></filter></defs><g filter="url(#editing-hole)"><g transform="translate(-500.05512085556984, 90.79500007629395)"><path d="M19.57-6.93L19.57-6.93L19.57-6.93Q20.43-5.85 20.43-3.76L20.43-3.76L20.43-3.76Q20.43-1.67 18.83-0.38L18.83-0.38L18.83-0.38Q17.23 0.90 14.45 0.90L14.45 0.90L14.45 0.90Q12.82 0.90 10.30 0.54L10.30 0.54L10.30 0.54Q5.35-0.22 3.94-0.22L3.94-0.22L3.94-0.22Q2.52-0.22 1.93-0.16L1.93-0.16L1.93-0.16Q1.35-0.09 0.40 0L0.40 0L5.85-29.70L15.71-29.70L11.21-4.95L11.21-4.95Q11.79-4.86 12.33-4.86L12.33-4.86L13.46-4.86L13.46-4.86Q17.23-4.86 19.57-6.93ZM42.66-6.93L42.66-6.93L42.66-6.93Q43.52-5.85 43.52-4.09L43.52-4.09L43.52-4.09Q43.52-1.67 41.72-0.38L41.72-0.38L41.72-0.38Q39.91 0.90 37.08 0.90L37.08 0.90L37.08 0.90Q35.46 0.90 32.98 0.54L32.98 0.54L32.98 0.54Q28.13-0.22 26.64-0.22L26.64-0.22L26.64-0.22Q25.16-0.22 24.57-0.16L24.57-0.16L24.57-0.16Q23.98-0.09 23.04 0L23.04 0L28.57-29.70L47.97-29.70L47.97-29.70Q47.97-26.95 46.64-25.52L46.64-25.52L46.64-25.52Q45.31-24.07 42.70-24.07L42.70-24.07L42.70-24.07Q40.09-24.07 37.44-25.29L37.44-25.29L36.05-17.41L44.05-17.41L44.05-17.41Q44.05-15.03 42.88-13.70L42.88-13.70L42.88-13.70Q41.72-12.38 39.76-12.38L39.76-12.38L39.76-12.38Q37.80-12.38 36.59-12.82L36.59-12.82L36.59-12.82Q35.37-13.28 35.23-13.41L35.23-13.41L33.61-4.91L33.61-4.91Q34.70-4.77 36.72-4.77L36.72-4.77L36.72-4.77Q40.19-4.77 42.66-6.93ZM49.05-28.04L49.05-28.04L49.05-28.04Q51.16-30.51 54.67-30.51L54.67-30.51L54.67-30.51Q57.47-30.51 58.95-29.43L58.95-29.43L58.95-29.43Q60.44-28.30 61.42-25.56L61.42-25.56L63.31-20.20L70.11-29.65L76.19-29.65L65.16-15.03L68.00-7.02L68.00-7.02Q68.63-5.22 69.73-3.89L69.73-3.89L69.73-3.89Q70.83-2.56 71.82-2.34L71.82-2.34L71.82-2.34Q70.92-0.63 69.37 0.14L69.37 0.14L69.37 0.14Q67.81 0.90 65.54 0.90L65.54 0.90L65.54 0.90Q63.27 0.90 61.67-0.58L61.67-0.58L61.67-0.58Q60.08-2.07 58.86-5.40L58.86-5.40L57.55-9L50.76 0L45.23 0L55.58-14.35L52.34-23.40L52.34-23.40Q51.62-25.38 50.90-26.39L50.90-26.39L50.90-26.39Q50.17-27.40 49.05-28.04ZM113.35-18.68L113.35-18.68L113.35-18.68Q113.35 0.49 92.56 0.49L92.56 0.49L92.56 0.49Q89.23 0.49 83.74-0.32L83.74-0.32L88.78-26.91L88.78-26.91Q89.14-28.71 89.37-29.74L89.37-29.74L89.37-29.74Q96.21-30.24 99.25-30.24L99.25-30.24L99.25-30.24Q102.28-30.24 105.07-29.61L105.07-29.61L105.07-29.61Q107.86-28.98 109.71-27.58L109.71-27.58L109.71-27.58Q113.35-24.84 113.35-18.68ZM104.08-20.34L104.08-20.34L104.08-20.34Q104.08-27.04 99.27-27.04L99.27-27.04L98.82-27.04L98.82-27.04Q98.59-27.04 98.37-27L98.37-27L93.73-2.83L93.73-2.83Q93.91-2.75 94.09-2.75L94.09-2.75L94.45-2.75L94.45-2.75Q96.12-2.75 97.85-3.78L97.85-3.78L97.85-3.78Q99.58-4.81 100.93-6.93L100.93-6.93L100.93-6.93Q104.08-11.83 104.08-20.34ZM134.86-6.93L134.86-6.93L134.86-6.93Q135.72-5.85 135.72-4.09L135.72-4.09L135.72-4.09Q135.72-1.67 133.92-0.38L133.92-0.38L133.92-0.38Q132.12 0.90 129.28 0.90L129.28 0.90L129.28 0.90Q127.66 0.90 125.19 0.54L125.19 0.54L125.19 0.54Q120.33-0.22 118.84-0.22L118.84-0.22L118.84-0.22Q117.36-0.22 116.77-0.16L116.77-0.16L116.77-0.16Q116.19-0.09 115.24 0L115.24 0L120.78-29.70L140.17-29.70L140.17-29.70Q140.17-26.95 138.85-25.52L138.85-25.52L138.85-25.52Q137.52-24.07 134.91-24.07L134.91-24.07L134.91-24.07Q132.30-24.07 129.64-25.29L129.64-25.29L128.25-17.41L136.26-17.41L136.26-17.41Q136.26-15.03 135.09-13.70L135.09-13.70L135.09-13.70Q133.92-12.38 131.96-12.38L131.96-12.38L131.96-12.38Q130.00-12.38 128.79-12.82L128.79-12.82L128.79-12.82Q127.57-13.28 127.44-13.41L127.44-13.41L125.82-4.91L125.82-4.91Q126.90-4.77 128.92-4.77L128.92-4.77L128.92-4.77Q132.39-4.77 134.86-6.93ZM157.41-20.79L157.41-20.79L157.41-20.79Q158.09-22.14 158.09-23.40L158.09-23.40L158.09-23.40Q158.09-24.66 157.95-25.36L157.95-25.36L157.95-25.36Q157.81-26.05 157.50-26.59L157.50-26.59L157.50-26.59Q156.82-27.77 155.47-27.77L155.47-27.77L155.47-27.77Q153.81-27.77 152.46-26.55L152.46-26.55L152.46-26.55Q151.02-25.29 151.02-23.31L151.02-23.31L151.02-23.31Q151.02-22.05 151.90-21.08L151.90-21.08L151.90-21.08Q152.78-20.11 154.13-19.21L154.13-19.21L154.13-19.21Q155.47-18.31 157.00-17.41L157.00-17.41L157.00-17.41Q158.53-16.52 159.88-15.43L159.88-15.43L159.88-15.43Q162.99-12.96 162.99-9.63L162.99-9.63L162.99-9.63Q162.99-7.38 161.80-5.47L161.80-5.47L161.80-5.47Q160.60-3.55 158.63-2.16L158.63-2.16L158.63-2.16Q154.31 0.90 148.59 0.90L148.59 0.90L148.59 0.90Q143.95 0.90 141.57-0.61L141.57-0.61L141.57-0.61Q139.19-2.11 139.19-4.41L139.19-4.41L139.19-4.41Q139.19-8.50 142.38-9.54L142.38-9.54L142.38-9.54Q143.28-9.86 144.65-9.86L144.65-9.86L144.65-9.86Q146.03-9.86 147.60-9.27L147.60-9.27L147.60-9.27Q146.88-7.42 146.88-5.76L146.88-5.76L146.88-5.76Q146.88-2.16 149.44-2.16L149.44-2.16L149.44-2.16Q151.11-2.16 152.48-3.38L152.48-3.38L152.48-3.38Q153.85-4.59 153.85-5.96L153.85-5.96L153.85-5.96Q153.85-7.33 152.98-8.32L152.98-8.32L152.98-8.32Q152.10-9.31 150.79-10.10L150.79-10.10L150.79-10.10Q149.49-10.89 147.98-11.65L147.98-11.65L147.98-11.65Q146.47-12.42 145.17-13.50L145.17-13.50L145.17-13.50Q142.11-15.97 142.11-19.93L142.11-19.93L142.11-19.93Q142.11-22.50 143.37-24.50L143.37-24.50L143.37-24.50Q144.63-26.50 146.66-27.86L146.66-27.86L146.66-27.86Q150.70-30.60 155.68-30.60L155.68-30.60L155.68-30.60Q160.65-30.60 163.06-29.11L163.06-29.11L163.06-29.11Q165.47-27.63 165.47-25.11L165.47-25.11L165.47-25.11Q165.47-22.90 163.75-21.51L163.75-21.51L163.75-21.51Q162.27-20.34 160.47-20.34L160.47-20.34L160.47-20.34Q158.67-20.34 157.41-20.79ZM175.73 0L165.92 0L171.63-29.70L181.53-29.70L175.73 0ZM200.75-14.49L209.83-15.30L209.83-15.30Q206.59-8.19 206.59 0.04L206.59 0.04L206.59 0.04Q205.38 0.90 203.60 0.90L203.60 0.90L203.60 0.90Q201.82 0.90 200.70 0.07L200.70 0.07L200.70 0.07Q199.57-0.77 199.35-1.62L199.35-1.62L199.35-1.62Q198.22-0.45 196.40 0.22L196.40 0.22L196.40 0.22Q194.58 0.90 192.64 0.90L192.64 0.90L192.64 0.90Q190.71 0.90 189.02 0.27L189.02 0.27L189.02 0.27Q187.34-0.36 186.03-1.75L186.03-1.75L186.03-1.75Q183.15-4.81 183.15-10.62L183.15-10.62L183.15-10.62Q183.15-19.62 187.97-25.02L187.97-25.02L187.97-25.02Q192.91-30.60 201.69-30.60L201.69-30.60L201.69-30.60Q207.76-30.60 209.92-27.45L209.92-27.45L209.92-27.45Q210.60-26.46 210.60-25.27L210.60-25.27L210.60-25.27Q210.60-24.07 210.08-23.06L210.08-23.06L210.08-23.06Q209.56-22.05 208.75-21.24L208.75-21.24L208.75-21.24Q206.82-19.44 204.44-19.44L204.44-19.44L204.44-19.44Q203.49-19.44 202.59-19.75L202.59-19.75L202.59-19.75Q202.77-21.11 202.77-22.68L202.77-22.68L202.77-22.68Q202.77-24.25 202.66-24.97L202.66-24.97L202.66-24.97Q202.54-25.70 202.28-26.28L202.28-26.28L202.28-26.28Q201.69-27.49 200.41-27.49L200.41-27.49L200.41-27.49Q199.13-27.49 197.71-26.12L197.71-26.12L197.71-26.12Q196.29-24.75 195.16-22.50L195.16-22.50L195.16-22.50Q192.69-17.46 192.69-11.38L192.69-11.38L192.69-11.38Q192.69-8.59 193.77-6.61L193.77-6.61L193.77-6.61Q194.94-4.46 197.01-4.46L197.01-4.46L197.01-4.46Q197.73-4.46 198.38-4.81L198.38-4.81L198.38-4.81Q199.03-5.17 199.31-5.44L199.31-5.44L200.75-14.49ZM216.68 0L211.72 0L217.13-29.70L226.80-29.70L233.82-9.27L237.56-29.70L242.55-29.65L237.06 0L226.75 0L220.28-19.66L216.68 0ZM272.70 0.90L272.70 0.90L272.70 0.90Q266.94 0.90 266.40-7.29L266.40-7.29L258.66-7.29L258.66-7.29Q257.76-5.22 257.13-3.42L257.13-3.42L255.96 0L249.66 0L263.83-29.70L273.51-29.70L275.40-7.83L275.40-7.83Q275.85-3.10 277.65-1.71L277.65-1.71L277.65-1.71Q276.35 0.90 272.70 0.90ZM262.53-16.29L260.06-10.57L266.26-10.57L265.73-22.14L265.73-23.36L262.53-16.29ZM303.25-9.31L303.25-9.31L303.25-9.31Q304.43-8.46 304.43-6.64L304.43-6.64L304.43-6.64Q304.43-4.81 303.64-3.53L303.64-3.53L303.64-3.53Q302.85-2.25 301.32-1.26L301.32-1.26L301.32-1.26Q298.04 0.85 292.30 0.85L292.30 0.85L292.30 0.85Q286.56 0.85 283.43-2.14L283.43-2.14L283.43-2.14Q280.31-5.13 280.31-10.44L280.31-10.44L280.31-10.44Q280.31-17.95 284.22-23.67L284.22-23.67L284.22-23.67Q287.19-27.90 292.50-29.70L292.50-29.70L292.50-29.70Q295.25-30.60 297.94-30.60L297.94-30.60L297.94-30.60Q300.64-30.60 302.31-30.24L302.31-30.24L302.31-30.24Q303.98-29.88 305.24-29.16L305.24-29.16L305.24-29.16Q307.98-27.58 307.98-25.06L307.98-25.06L307.98-25.06Q307.98-22.77 305.82-21.06L305.82-21.06L305.82-21.06Q303.84-19.53 302.22-19.53L302.22-19.53L302.22-19.53Q300.60-19.53 299.93-19.75L299.93-19.75L299.93-19.75Q300.11-21.38 300.11-22.43L300.11-22.43L300.11-22.43Q300.11-23.49 300.06-24.25L300.06-24.25L300.06-24.25Q300.01-25.02 299.79-25.74L299.79-25.74L299.79-25.74Q299.34-27.40 297.97-27.40L297.97-27.40L297.97-27.40Q296.60-27.40 295.22-26.12L295.22-26.12L295.22-26.12Q293.85-24.84 292.68-22.68L292.68-22.68L292.68-22.68Q290.02-17.77 290.02-11.97L290.02-11.97L290.02-11.97Q290.02-9.18 291.60-7.58L291.60-7.58L291.60-7.58Q293.18-5.98 296.55-5.98L296.55-5.98L296.55-5.98Q299.07-5.98 301.45-7.65L301.45-7.65L301.45-7.65Q302.49-8.37 303.25-9.31ZM327.91 0.90L327.91 0.90L327.91 0.90Q322.15 0.90 321.62-7.29L321.62-7.29L313.88-7.29L313.88-7.29Q312.97-5.22 312.34-3.42L312.34-3.42L311.17 0L304.88 0L319.05-29.70L328.72-29.70L330.62-7.83L330.62-7.83Q331.06-3.10 332.87-1.71L332.87-1.71L332.87-1.71Q331.56 0.90 327.91 0.90ZM317.75-16.29L315.27-10.57L321.48-10.57L320.94-22.14L320.94-23.36L317.75-16.29ZM364.68-18.68L364.68-18.68L364.68-18.68Q364.68 0.49 343.89 0.49L343.89 0.49L343.89 0.49Q340.56 0.49 335.07-0.32L335.07-0.32L340.11-26.91L340.11-26.91Q340.47-28.71 340.69-29.74L340.69-29.74L340.69-29.74Q347.53-30.24 350.57-30.24L350.57-30.24L350.57-30.24Q353.61-30.24 356.40-29.61L356.40-29.61L356.40-29.61Q359.19-28.98 361.03-27.58L361.03-27.58L361.03-27.58Q364.68-24.84 364.68-18.68ZM355.41-20.34L355.41-20.34L355.41-20.34Q355.41-27.04 350.59-27.04L350.59-27.04L350.14-27.04L350.14-27.04Q349.92-27.04 349.69-27L349.69-27L345.06-2.83L345.06-2.83Q345.24-2.75 345.42-2.75L345.42-2.75L345.78-2.75L345.78-2.75Q347.44-2.75 349.18-3.78L349.18-3.78L349.18-3.78Q350.91-4.81 352.26-6.93L352.26-6.93L352.26-6.93Q355.41-11.83 355.41-20.34ZM386.19-6.93L386.19-6.93L386.19-6.93Q387.04-5.85 387.04-4.09L387.04-4.09L387.04-4.09Q387.04-1.67 385.25-0.38L385.25-0.38L385.25-0.38Q383.44 0.90 380.61 0.90L380.61 0.90L380.61 0.90Q378.99 0.90 376.51 0.54L376.51 0.54L376.51 0.54Q371.65-0.22 370.17-0.22L370.17-0.22L370.17-0.22Q368.69-0.22 368.10-0.16L368.10-0.16L368.10-0.16Q367.51-0.09 366.57 0L366.57 0L372.10-29.70L391.50-29.70L391.50-29.70Q391.50-26.95 390.17-25.52L390.17-25.52L390.17-25.52Q388.84-24.07 386.23-24.07L386.23-24.07L386.23-24.07Q383.63-24.07 380.97-25.29L380.97-25.29L379.57-17.41L387.58-17.41L387.58-17.41Q387.58-15.03 386.41-13.70L386.41-13.70L386.41-13.70Q385.25-12.38 383.29-12.38L383.29-12.38L383.29-12.38Q381.33-12.38 380.11-12.82L380.11-12.82L380.11-12.82Q378.90-13.28 378.76-13.41L378.76-13.41L377.14-4.91L377.14-4.91Q378.22-4.77 380.25-4.77L380.25-4.77L380.25-4.77Q383.71-4.77 386.19-6.93ZM395.01 0L389.83 0L397.98-29.70L407.38-29.70L409.45-12.73L417.82-29.70L425.70-29.70L426.51-7.47L426.51-7.47Q426.69-3.06 428.85-1.71L428.85-1.71L428.85-1.71Q428.35-0.81 426.91 0.04L426.91 0.04L426.91 0.04Q425.47 0.90 423.56 0.90L423.56 0.90L423.56 0.90Q421.65 0.90 420.52 0.36L420.52 0.36L420.52 0.36Q419.40-0.18 418.77-1.08L418.77-1.08L418.77-1.08Q417.64-2.70 417.64-5.80L417.64-5.80L417.64-19.71L408.78 0L403.20 0L400.05-20.20L395.01 0ZM434.02 0L436.63-13.23L436.63-13.23Q435.33-25.43 430.74-28.04L430.74-28.04L430.74-28.04Q431.68-29.20 433.21-29.86L433.21-29.86L433.21-29.86Q434.74-30.51 436.59-30.51L436.59-30.51L436.59-30.51Q438.43-30.51 439.83-29.86L439.83-29.86L439.83-29.86Q441.22-29.20 442.12-27.81L442.12-27.81L442.12-27.81Q443.83-25.15 443.83-18.81L443.83-18.81L443.83-15.57L443.83-15.57Q446.53-23.49 449.23-26.91L449.23-26.91L449.23-26.91Q451.98-30.42 455.40-30.42L455.40-30.42L455.40-30.42Q456.75-30.42 457.65-29.72L457.65-29.72L457.65-29.72Q458.55-29.02 459.00-27.99L459.00-27.99L459.00-27.99Q455.53-26.46 452.20-22.05L452.20-22.05L452.20-22.05Q448.87-17.64 446.71-11.47L446.71-11.47L444.06 0L434.02 0ZM475.15 0L465.34 0L471.06-29.70L480.96-29.70L475.15 0ZM499.50-20.79L499.50-20.79L499.50-20.79Q500.17-22.14 500.17-23.40L500.17-23.40L500.17-23.40Q500.17-24.66 500.04-25.36L500.04-25.36L500.04-25.36Q499.90-26.05 499.59-26.59L499.59-26.59L499.59-26.59Q498.91-27.77 497.56-27.77L497.56-27.77L497.56-27.77Q495.90-27.77 494.55-26.55L494.55-26.55L494.55-26.55Q493.11-25.29 493.11-23.31L493.11-23.31L493.11-23.31Q493.11-22.05 493.99-21.08L493.99-21.08L493.99-21.08Q494.86-20.11 496.21-19.21L496.21-19.21L496.21-19.21Q497.56-18.31 499.09-17.41L499.09-17.41L499.09-17.41Q500.62-16.52 501.97-15.43L501.97-15.43L501.97-15.43Q505.08-12.96 505.08-9.63L505.08-9.63L505.08-9.63Q505.08-7.38 503.89-5.47L503.89-5.47L503.89-5.47Q502.69-3.55 500.71-2.16L500.71-2.16L500.71-2.16Q496.39 0.90 490.68 0.90L490.68 0.90L490.68 0.90Q486.04 0.90 483.66-0.61L483.66-0.61L483.66-0.61Q481.27-2.11 481.27-4.41L481.27-4.41L481.27-4.41Q481.27-8.50 484.47-9.54L484.47-9.54L484.47-9.54Q485.37-9.86 486.74-9.86L486.74-9.86L486.74-9.86Q488.11-9.86 489.69-9.27L489.69-9.27L489.69-9.27Q488.97-7.42 488.97-5.76L488.97-5.76L488.97-5.76Q488.97-2.16 491.53-2.16L491.53-2.16L491.53-2.16Q493.20-2.16 494.57-3.38L494.57-3.38L494.57-3.38Q495.94-4.59 495.94-5.96L495.94-5.96L495.94-5.96Q495.94-7.33 495.07-8.32L495.07-8.32L495.07-8.32Q494.19-9.31 492.88-10.10L492.88-10.10L492.88-10.10Q491.58-10.89 490.07-11.65L490.07-11.65L490.07-11.65Q488.56-12.42 487.26-13.50L487.26-13.50L487.26-13.50Q484.20-15.97 484.20-19.93L484.20-19.93L484.20-19.93Q484.20-22.50 485.46-24.50L485.46-24.50L485.46-24.50Q486.72-26.50 488.74-27.86L488.74-27.86L488.74-27.86Q492.79-30.60 497.77-30.60L497.77-30.60L497.77-30.60Q502.74-30.60 505.15-29.11L505.15-29.11L505.15-29.11Q507.55-27.63 507.55-25.11L507.55-25.11L507.55-25.11Q507.55-22.90 505.84-21.51L505.84-21.51L505.84-21.51Q504.36-20.34 502.56-20.34L502.56-20.34L502.56-20.34Q500.76-20.34 499.50-20.79ZM521.37-21.91L521.37-21.91L521.37-21.91Q519.84-23.09 519.84-25.58L519.84-25.58L519.84-25.58Q519.84-28.08 521.48-29.38L521.48-29.38L521.48-29.38Q523.13-30.69 525.96-30.69L525.96-30.69L525.96-30.69Q527.76-30.69 532.03-30.06L532.03-30.06L535.10-29.61L535.10-29.61Q536.63-29.43 538.22-29.43L538.22-29.43L538.22-29.43Q539.82-29.43 540.90-30.11L540.90-30.11L540.90-30.11Q542.52-28.66 542.52-26.59L542.52-26.59L542.52-26.59Q542.52-24.52 540.67-23.04L540.67-23.04L540.67-23.04Q538.78-21.46 536.36-21.46L536.36-21.46L536.36-21.46Q535.18-21.46 533.29-21.78L533.29-21.78L533.29-21.78Q531.09-14.85 531.09-10.04L531.09-10.04L531.09-10.04Q531.09-5.22 533.52-2.70L533.52-2.70L533.52-2.70Q532.39-0.67 530.73 0.11L530.73 0.11L530.73 0.11Q529.06 0.90 526.57 0.90L526.57 0.90L526.57 0.90Q524.07 0.90 522.52-0.47L522.52-0.47L522.52-0.47Q520.97-1.84 520.97-4.68L520.97-4.68L520.97-4.68Q520.97-7.96 522.76-13.37L522.76-13.37L522.76-13.37Q524.56-18.72 527.26-22.81L527.26-22.81L527.26-22.81Q525.96-22.95 524.61-22.95L524.61-22.95L524.61-22.95Q521.82-22.95 521.37-21.91ZM557.86-3.38L557.86-3.38L557.86-3.38Q557.86-6.52 559.12-12.82L559.12-12.82L552.46-12.82L549.99 0L540.58 0L546.30-29.70L555.79-29.70L553.18-16.43L559.84-16.43L562.32-29.70L571.81-29.70L571.81-29.70Q571.18-26.37 570.37-22.63L570.37-22.63L568.84-15.30L568.84-15.30Q567.13-6.75 567.13-3.01L567.13-3.01L567.13-3.01Q567.13-1.48 567.63-0.63L567.63-0.63L567.63-0.63Q565.38 0.90 562.75 0.90L562.75 0.90L562.75 0.90Q560.11 0.90 558.99-0.36L558.99-0.36L558.99-0.36Q557.86-1.62 557.86-3.38ZM592.11-6.93L592.11-6.93L592.11-6.93Q592.96-5.85 592.96-4.09L592.96-4.09L592.96-4.09Q592.96-1.67 591.16-0.38L591.16-0.38L591.16-0.38Q589.36 0.90 586.53 0.90L586.53 0.90L586.53 0.90Q584.91 0.90 582.43 0.54L582.43 0.54L582.43 0.54Q577.57-0.22 576.09-0.22L576.09-0.22L576.09-0.22Q574.60-0.22 574.02-0.16L574.02-0.16L574.02-0.16Q573.43-0.09 572.49 0L572.49 0L578.02-29.70L597.42-29.70L597.42-29.70Q597.42-26.95 596.09-25.52L596.09-25.52L596.09-25.52Q594.76-24.07 592.15-24.07L592.15-24.07L592.15-24.07Q589.54-24.07 586.89-25.29L586.89-25.29L585.49-17.41L593.50-17.41L593.50-17.41Q593.50-15.03 592.33-13.70L592.33-13.70L592.33-13.70Q591.16-12.38 589.21-12.38L589.21-12.38L589.21-12.38Q587.25-12.38 586.03-12.82L586.03-12.82L586.03-12.82Q584.82-13.28 584.68-13.41L584.68-13.41L583.06-4.91L583.06-4.91Q584.14-4.77 586.17-4.77L586.17-4.77L586.17-4.77Q589.63-4.77 592.11-6.93ZM615.60 0L605.97 0L611.46-29.56L611.46-29.56Q615.91-30.06 622.42-30.06L622.42-30.06L622.42-30.06Q628.92-30.06 631.93-28.17L631.93-28.17L631.93-28.17Q634.95-26.28 634.95-22.48L634.95-22.48L634.95-22.48Q634.95-18.68 632.99-16.29L632.99-16.29L632.99-16.29Q631.03-13.90 627.66-13.14L627.66-13.14L627.66-13.14Q628.42-9.40 630.18-6.39L630.18-6.39L630.18-6.39Q631.80-3.55 633.69-2.65L633.69-2.65L633.69-2.65Q633.01-0.77 631.64 0.07L631.64 0.07L631.64 0.07Q630.27 0.90 628.31 0.90L628.31 0.90L628.31 0.90Q626.35 0.90 624.82-0.25L624.82-0.25L624.82-0.25Q623.29-1.40 622.08-3.51L622.08-3.51L622.08-3.51Q619.51-8.10 619.24-15.34L619.24-15.34L619.56-15.34L619.56-15.34Q622.89-15.43 624.55-17.17L624.55-17.17L624.55-17.17Q626.22-18.90 626.22-22.54L626.22-22.54L626.22-22.54Q626.22-27.09 622.39-27.27L622.39-27.27L621.40-27.27L621.40-27.27Q621.00-27.27 620.77-27.22L620.77-27.22L615.60 0ZM646.33 0L636.52 0L642.24-29.70L652.14-29.70L646.33 0ZM671.35-14.49L680.44-15.30L680.44-15.30Q677.20-8.19 677.20 0.04L677.20 0.04L677.20 0.04Q675.99 0.90 674.21 0.90L674.21 0.90L674.21 0.90Q672.43 0.90 671.31 0.07L671.31 0.07L671.31 0.07Q670.18-0.77 669.96-1.62L669.96-1.62L669.96-1.62Q668.83-0.45 667.01 0.22L667.01 0.22L667.01 0.22Q665.19 0.90 663.25 0.90L663.25 0.90L663.25 0.90Q661.32 0.90 659.63 0.27L659.63 0.27L659.63 0.27Q657.94-0.36 656.64-1.75L656.64-1.75L656.64-1.75Q653.76-4.81 653.76-10.62L653.76-10.62L653.76-10.62Q653.76-19.62 658.57-25.02L658.57-25.02L658.57-25.02Q663.52-30.60 672.30-30.60L672.30-30.60L672.30-30.60Q678.37-30.60 680.53-27.45L680.53-27.45L680.53-27.45Q681.21-26.46 681.21-25.27L681.21-25.27L681.21-25.27Q681.21-24.07 680.69-23.06L680.69-23.06L680.69-23.06Q680.17-22.05 679.36-21.24L679.36-21.24L679.36-21.24Q677.43-19.44 675.04-19.44L675.04-19.44L675.04-19.44Q674.10-19.44 673.20-19.75L673.20-19.75L673.20-19.75Q673.38-21.11 673.38-22.68L673.38-22.68L673.38-22.68Q673.38-24.25 673.27-24.97L673.27-24.97L673.27-24.97Q673.15-25.70 672.88-26.28L672.88-26.28L672.88-26.28Q672.30-27.49 671.02-27.49L671.02-27.49L671.02-27.49Q669.73-27.49 668.32-26.12L668.32-26.12L668.32-26.12Q666.90-24.75 665.77-22.50L665.77-22.50L665.77-22.50Q663.30-17.46 663.30-11.38L663.30-11.38L663.30-11.38Q663.30-8.59 664.38-6.61L664.38-6.61L664.38-6.61Q665.55-4.46 667.62-4.46L667.62-4.46L667.62-4.46Q668.34-4.46 668.99-4.81L668.99-4.81L668.99-4.81Q669.64-5.17 669.91-5.44L669.91-5.44L671.35-14.49ZM699.43-3.38L699.43-3.38L699.43-3.38Q699.43-6.52 700.69-12.82L700.69-12.82L694.03-12.82L691.56 0L682.15 0L687.87-29.70L697.36-29.70L694.75-16.43L701.41-16.43L703.89-29.70L713.38-29.70L713.38-29.70Q712.75-26.37 711.94-22.63L711.94-22.63L710.41-15.30L710.41-15.30Q708.70-6.75 708.70-3.01L708.70-3.01L708.70-3.01Q708.70-1.48 709.20-0.63L709.20-0.63L709.20-0.63Q706.95 0.90 704.32 0.90L704.32 0.90L704.32 0.90Q701.68 0.90 700.56-0.36L700.56-0.36L700.56-0.36Q699.43-1.62 699.43-3.38ZM718.06-21.91L718.06-21.91L718.06-21.91Q716.53-23.09 716.53-25.58L716.53-25.58L716.53-25.58Q716.53-28.08 718.18-29.38L718.18-29.38L718.18-29.38Q719.82-30.69 722.65-30.69L722.65-30.69L722.65-30.69Q724.45-30.69 728.73-30.06L728.73-30.06L731.79-29.61L731.79-29.61Q733.32-29.43 734.92-29.43L734.92-29.43L734.92-29.43Q736.51-29.43 737.59-30.11L737.59-30.11L737.59-30.11Q739.21-28.66 739.21-26.59L739.21-26.59L739.21-26.59Q739.21-24.52 737.37-23.04L737.37-23.04L737.37-23.04Q735.48-21.46 733.05-21.46L733.05-21.46L733.05-21.46Q731.88-21.46 729.99-21.78L729.99-21.78L729.99-21.78Q727.78-14.85 727.78-10.04L727.78-10.04L727.78-10.04Q727.78-5.22 730.21-2.70L730.21-2.70L730.21-2.70Q729.09-0.67 727.42 0.11L727.42 0.11L727.42 0.11Q725.76 0.90 723.26 0.90L723.26 0.90L723.26 0.90Q720.76 0.90 719.21-0.47L719.21-0.47L719.21-0.47Q717.66-1.84 717.66-4.68L717.66-4.68L717.66-4.68Q717.66-7.96 719.46-13.37L719.46-13.37L719.46-13.37Q721.26-18.72 723.96-22.81L723.96-22.81L723.96-22.81Q722.65-22.95 721.30-22.95L721.30-22.95L721.30-22.95Q718.51-22.95 718.06-21.91ZM764.59-20.79L764.59-20.79L764.59-20.79Q765.27-22.14 765.27-23.40L765.27-23.40L765.27-23.40Q765.27-24.66 765.13-25.36L765.13-25.36L765.13-25.36Q765.00-26.05 764.68-26.59L764.68-26.59L764.68-26.59Q764.01-27.77 762.66-27.77L762.66-27.77L762.66-27.77Q760.99-27.77 759.64-26.55L759.64-26.55L759.64-26.55Q758.20-25.29 758.20-23.31L758.20-23.31L758.20-23.31Q758.20-22.05 759.08-21.08L759.08-21.08L759.08-21.08Q759.96-20.11 761.31-19.21L761.31-19.21L761.31-19.21Q762.66-18.31 764.19-17.41L764.19-17.41L764.19-17.41Q765.72-16.52 767.07-15.43L767.07-15.43L767.07-15.43Q770.17-12.96 770.17-9.63L770.17-9.63L770.17-9.63Q770.17-7.38 768.98-5.47L768.98-5.47L768.98-5.47Q767.79-3.55 765.81-2.16L765.81-2.16L765.81-2.16Q761.49 0.90 755.77 0.90L755.77 0.90L755.77 0.90Q751.14 0.90 748.75-0.61L748.75-0.61L748.75-0.61Q746.37-2.11 746.37-4.41L746.37-4.41L746.37-4.41Q746.37-8.50 749.56-9.54L749.56-9.54L749.56-9.54Q750.46-9.86 751.84-9.86L751.84-9.86L751.84-9.86Q753.21-9.86 754.78-9.27L754.78-9.27L754.78-9.27Q754.06-7.42 754.06-5.76L754.06-5.76L754.06-5.76Q754.06-2.16 756.63-2.16L756.63-2.16L756.63-2.16Q758.29-2.16 759.67-3.38L759.67-3.38L759.67-3.38Q761.04-4.59 761.04-5.96L761.04-5.96L761.04-5.96Q761.04-7.33 760.16-8.32L760.16-8.32L760.16-8.32Q759.28-9.31 757.98-10.10L757.98-10.10L757.98-10.10Q756.67-10.89 755.17-11.65L755.17-11.65L755.17-11.65Q753.66-12.42 752.35-13.50L752.35-13.50L752.35-13.50Q749.29-15.97 749.29-19.93L749.29-19.93L749.29-19.93Q749.29-22.50 750.55-24.50L750.55-24.50L750.55-24.50Q751.81-26.50 753.84-27.86L753.84-27.86L753.84-27.86Q757.89-30.60 762.86-30.60L762.86-30.60L762.86-30.60Q767.83-30.60 770.24-29.11L770.24-29.11L770.24-29.11Q772.65-27.63 772.65-25.11L772.65-25.11L772.65-25.11Q772.65-22.90 770.94-21.51L770.94-21.51L770.94-21.51Q769.45-20.34 767.65-20.34L767.65-20.34L767.65-20.34Q765.85-20.34 764.59-20.79ZM777.19-21.91L777.19-21.91L777.19-21.91Q775.66-23.09 775.66-25.58L775.66-25.58L775.66-25.58Q775.66-28.08 777.31-29.38L777.31-29.38L777.31-29.38Q778.95-30.69 781.78-30.69L781.78-30.69L781.78-30.69Q783.58-30.69 787.86-30.06L787.86-30.06L790.92-29.61L790.92-29.61Q792.45-29.43 794.05-29.43L794.05-29.43L794.05-29.43Q795.64-29.43 796.72-30.11L796.72-30.11L796.72-30.11Q798.34-28.66 798.34-26.59L798.34-26.59L798.34-26.59Q798.34-24.52 796.50-23.04L796.50-23.04L796.50-23.04Q794.61-21.46 792.18-21.46L792.18-21.46L792.18-21.46Q791.01-21.46 789.12-21.78L789.12-21.78L789.12-21.78Q786.91-14.85 786.91-10.04L786.91-10.04L786.91-10.04Q786.91-5.22 789.34-2.70L789.34-2.70L789.34-2.70Q788.22-0.67 786.55 0.11L786.55 0.11L786.55 0.11Q784.89 0.90 782.39 0.90L782.39 0.90L782.39 0.90Q779.89 0.90 778.34-0.47L778.34-0.47L778.34-0.47Q776.79-1.84 776.79-4.68L776.79-4.68L776.79-4.68Q776.79-7.96 778.59-13.37L778.59-13.37L778.59-13.37Q780.39-18.72 783.09-22.81L783.09-22.81L783.09-22.81Q781.78-22.95 780.43-22.95L780.43-22.95L780.43-22.95Q777.64-22.95 777.19-21.91ZM816.12-6.93L816.12-6.93L816.12-6.93Q816.97-5.85 816.97-4.09L816.97-4.09L816.97-4.09Q816.97-1.67 815.17-0.38L815.17-0.38L815.17-0.38Q813.37 0.90 810.54 0.90L810.54 0.90L810.54 0.90Q808.92 0.90 806.44 0.54L806.44 0.54L806.44 0.54Q801.58-0.22 800.10-0.22L800.10-0.22L800.10-0.22Q798.61-0.22 798.03-0.16L798.03-0.16L798.03-0.16Q797.44-0.09 796.50 0L796.50 0L802.03-29.70L821.43-29.70L821.43-29.70Q821.43-26.95 820.10-25.52L820.10-25.52L820.10-25.52Q818.77-24.07 816.16-24.07L816.16-24.07L816.16-24.07Q813.55-24.07 810.90-25.29L810.90-25.29L809.50-17.41L817.51-17.41L817.51-17.41Q817.51-15.03 816.34-13.70L816.34-13.70L816.34-13.70Q815.17-12.38 813.22-12.38L813.22-12.38L813.22-12.38Q811.26-12.38 810.04-12.82L810.04-12.82L810.04-12.82Q808.83-13.28 808.69-13.41L808.69-13.41L807.07-4.91L807.07-4.91Q808.15-4.77 810.18-4.77L810.18-4.77L810.18-4.77Q813.64-4.77 816.12-6.93ZM838.71-30.02L838.71-30.02L838.71-30.02Q849.73-30.02 849.73-22.23L849.73-22.23L849.73-22.23Q849.73-17.95 846.99-15.39L846.99-15.39L846.99-15.39Q844.29-12.82 839.56-12.82L839.56-12.82L839.56-12.82Q837.36-12.82 835.65-14.08L835.65-14.08L835.65-14.08Q834.84-14.63 834.30-15.34L834.30-15.34L834.30-15.34Q837.58-15.34 839.32-17.35L839.32-17.35L839.32-17.35Q841.05-19.35 841.05-23.27L841.05-23.27L841.05-23.27Q841.05-27.18 837.18-27.18L837.18-27.18L836.10-27.18L836.10-27.18Q835.83-27.18 835.60-27.13L835.60-27.13L830.43 0L820.66 0L826.20-29.47L826.20-29.47Q831.01-29.92 833.80-29.97L833.80-29.97L833.80-29.97Q836.59-30.02 838.71-30.02ZM867.55-30.02L867.55-30.02L867.55-30.02Q878.58-30.02 878.58-22.23L878.58-22.23L878.58-22.23Q878.58-17.95 875.83-15.39L875.83-15.39L875.83-15.39Q873.13-12.82 868.41-12.82L868.41-12.82L868.41-12.82Q866.20-12.82 864.49-14.08L864.49-14.08L864.49-14.08Q863.68-14.63 863.14-15.34L863.14-15.34L863.14-15.34Q866.43-15.34 868.16-17.35L868.16-17.35L868.16-17.35Q869.89-19.35 869.89-23.27L869.89-23.27L869.89-23.27Q869.89-27.18 866.02-27.18L866.02-27.18L864.94-27.18L864.94-27.18Q864.67-27.18 864.45-27.13L864.45-27.13L859.27 0L849.51 0L855.04-29.47L855.04-29.47Q859.86-29.92 862.65-29.97L862.65-29.97L862.65-29.97Q865.44-30.02 867.55-30.02ZM888.12 0L878.31 0L884.02-29.70L893.92-29.70L888.12 0ZM899.55 0L894.60 0L900.00-29.70L909.67-29.70L916.69-9.27L920.43-29.70L925.42-29.65L919.93 0L909.63 0L903.15-19.66L899.55 0ZM944.77-14.49L953.86-15.30L953.86-15.30Q950.62-8.19 950.62 0.04L950.62 0.04L950.62 0.04Q949.41 0.90 947.63 0.90L947.63 0.90L947.63 0.90Q945.85 0.90 944.73 0.07L944.73 0.07L944.73 0.07Q943.60-0.77 943.38-1.62L943.38-1.62L943.38-1.62Q942.25-0.45 940.43 0.22L940.43 0.22L940.43 0.22Q938.61 0.90 936.67 0.90L936.67 0.90L936.67 0.90Q934.74 0.90 933.05 0.27L933.05 0.27L933.05 0.27Q931.36-0.36 930.06-1.75L930.06-1.75L930.06-1.75Q927.18-4.81 927.18-10.62L927.18-10.62L927.18-10.62Q927.18-19.62 931.99-25.02L931.99-25.02L931.99-25.02Q936.94-30.60 945.72-30.60L945.72-30.60L945.72-30.60Q951.79-30.60 953.95-27.45L953.95-27.45L953.95-27.45Q954.63-26.46 954.63-25.27L954.63-25.27L954.63-25.27Q954.63-24.07 954.11-23.06L954.11-23.06L954.11-23.06Q953.59-22.05 952.78-21.24L952.78-21.24L952.78-21.24Q950.85-19.44 948.46-19.44L948.46-19.44L948.46-19.44Q947.52-19.44 946.62-19.75L946.62-19.75L946.62-19.75Q946.80-21.11 946.80-22.68L946.80-22.68L946.80-22.68Q946.80-24.25 946.69-24.97L946.69-24.97L946.69-24.97Q946.57-25.70 946.30-26.28L946.30-26.28L946.30-26.28Q945.72-27.49 944.44-27.49L944.44-27.49L944.44-27.49Q943.15-27.49 941.74-26.12L941.74-26.12L941.74-26.12Q940.32-24.75 939.19-22.50L939.19-22.50L939.19-22.50Q936.72-17.46 936.72-11.38L936.72-11.38L936.72-11.38Q936.72-8.59 937.80-6.61L937.80-6.61L937.80-6.61Q938.97-4.46 941.04-4.46L941.04-4.46L941.04-4.46Q941.76-4.46 942.41-4.81L942.41-4.81L942.41-4.81Q943.06-5.17 943.33-5.44L943.33-5.44L944.77-14.49ZM982.89-20.79L982.89-20.79L982.89-20.79Q983.56-22.14 983.56-23.40L983.56-23.40L983.56-23.40Q983.56-24.66 983.43-25.36L983.43-25.36L983.43-25.36Q983.29-26.05 982.98-26.59L982.98-26.59L982.98-26.59Q982.30-27.77 980.95-27.77L980.95-27.77L980.95-27.77Q979.29-27.77 977.94-26.55L977.94-26.55L977.94-26.55Q976.50-25.29 976.50-23.31L976.50-23.31L976.50-23.31Q976.50-22.05 977.38-21.08L977.38-21.08L977.38-21.08Q978.25-20.11 979.60-19.21L979.60-19.21L979.60-19.21Q980.95-18.31 982.48-17.41L982.48-17.41L982.48-17.41Q984.01-16.52 985.36-15.43L985.36-15.43L985.36-15.43Q988.47-12.96 988.47-9.63L988.47-9.63L988.47-9.63Q988.47-7.38 987.28-5.47L987.28-5.47L987.28-5.47Q986.08-3.55 984.10-2.16L984.10-2.16L984.10-2.16Q979.78 0.90 974.07 0.90L974.07 0.90L974.07 0.90Q969.43 0.90 967.05-0.61L967.05-0.61L967.05-0.61Q964.66-2.11 964.66-4.41L964.66-4.41L964.66-4.41Q964.66-8.50 967.86-9.54L967.86-9.54L967.86-9.54Q968.76-9.86 970.13-9.86L970.13-9.86L970.13-9.86Q971.50-9.86 973.08-9.27L973.08-9.27L973.08-9.27Q972.36-7.42 972.36-5.76L972.36-5.76L972.36-5.76Q972.36-2.16 974.92-2.16L974.92-2.16L974.92-2.16Q976.59-2.16 977.96-3.38L977.96-3.38L977.96-3.38Q979.33-4.59 979.33-5.96L979.33-5.96L979.33-5.96Q979.33-7.33 978.46-8.32L978.46-8.32L978.46-8.32Q977.58-9.31 976.27-10.10L976.27-10.10L976.27-10.10Q974.97-10.89 973.46-11.65L973.46-11.65L973.46-11.65Q971.95-12.42 970.65-13.50L970.65-13.50L970.65-13.50Q967.59-15.97 967.59-19.93L967.59-19.93L967.59-19.93Q967.59-22.50 968.85-24.50L968.85-24.50L968.85-24.50Q970.11-26.50 972.13-27.86L972.13-27.86L972.13-27.86Q976.18-30.60 981.16-30.60L981.16-30.60L981.16-30.60Q986.13-30.60 988.54-29.11L988.54-29.11L988.54-29.11Q990.94-27.63 990.94-25.11L990.94-25.11L990.94-25.11Q990.94-22.90 989.23-21.51L989.23-21.51L989.23-21.51Q987.75-20.34 985.95-20.34L985.95-20.34L985.95-20.34Q984.15-20.34 982.89-20.79ZM995.49-21.91L995.49-21.91L995.49-21.91Q993.96-23.09 993.96-25.58L993.96-25.58L993.96-25.58Q993.96-28.08 995.60-29.38L995.60-29.38L995.60-29.38Q997.24-30.69 1000.08-30.69L1000.08-30.69L1000.08-30.69Q1001.88-30.69 1006.15-30.06L1006.15-30.06L1009.21-29.61L1009.21-29.61Q1010.74-29.43 1012.34-29.43L1012.34-29.43L1012.34-29.43Q1013.94-29.43 1015.02-30.11L1015.02-30.11L1015.02-30.11Q1016.64-28.66 1016.64-26.59L1016.64-26.59L1016.64-26.59Q1016.64-24.52 1014.79-23.04L1014.79-23.04L1014.79-23.04Q1012.90-21.46 1010.47-21.46L1010.47-21.46L1010.47-21.46Q1009.30-21.46 1007.41-21.78L1007.41-21.78L1007.41-21.78Q1005.21-14.85 1005.21-10.04L1005.21-10.04L1005.21-10.04Q1005.21-5.22 1007.64-2.70L1007.64-2.70L1007.64-2.70Q1006.51-0.67 1004.85 0.11L1004.85 0.11L1004.85 0.11Q1003.18 0.90 1000.69 0.90L1000.69 0.90L1000.69 0.90Q998.19 0.90 996.64-0.47L996.64-0.47L996.64-0.47Q995.08-1.84 995.08-4.68L995.08-4.68L995.08-4.68Q995.08-7.96 996.88-13.37L996.88-13.37L996.88-13.37Q998.68-18.72 1001.38-22.81L1001.38-22.81L1001.38-22.81Q1000.08-22.95 998.73-22.95L998.73-22.95L998.73-22.95Q995.94-22.95 995.49-21.91ZM1015.87-10.98L1015.87-10.98L1015.87-10.98Q1015.87-19.48 1020.28-24.84L1020.28-24.84L1020.28-24.84Q1024.96-30.64 1033.11-30.64L1033.11-30.64L1033.11-30.64Q1039.00-30.64 1041.97-27.79L1041.97-27.79L1041.97-27.79Q1044.94-24.93 1044.94-18.90L1044.94-18.90L1044.94-18.90Q1044.94-9.72 1040.26-4.37L1040.26-4.37L1040.26-4.37Q1035.63 0.90 1027.84 0.90L1027.84 0.90L1027.84 0.90Q1021.77 0.90 1018.82-2.14L1018.82-2.14L1018.82-2.14Q1015.87-5.17 1015.87-10.98ZM1027.71-20.29L1027.71-20.29L1027.71-20.29Q1025.68-12.20 1025.68-5.80L1025.68-5.80L1025.68-5.80Q1025.68-4.27 1026.20-3.28L1026.20-3.28L1026.20-3.28Q1026.72-2.29 1028.09-2.29L1028.09-2.29L1028.09-2.29Q1029.46-2.29 1030.32-2.95L1030.32-2.95L1030.32-2.95Q1031.17-3.60 1031.85-5.08L1031.85-5.08L1031.85-5.08Q1032.93-7.51 1033.94-12.67L1033.94-12.67L1033.94-12.67Q1034.95-17.82 1035.04-19.96L1035.04-19.96L1035.04-19.96Q1035.13-22.09 1035.13-23.71L1035.13-23.71L1035.13-23.71Q1035.13-25.33 1034.64-26.37L1034.64-26.37L1034.64-26.37Q1034.14-27.40 1032.82-27.40L1032.82-27.40L1032.82-27.40Q1031.49-27.40 1030.59-26.59L1030.59-26.59L1030.59-26.59Q1028.92-25.06 1027.71-20.29ZM1051.78 0L1046.83 0L1052.23-29.70L1061.91-29.70L1068.93-9.27L1072.66-29.70L1077.66-29.65L1072.17 0L1061.86 0L1055.38-19.66L1051.78 0ZM1098.00-6.93L1098.00-6.93L1098.00-6.93Q1098.85-5.85 1098.85-4.09L1098.85-4.09L1098.85-4.09Q1098.85-1.67 1097.05-0.38L1097.05-0.38L1097.05-0.38Q1095.25 0.90 1092.42 0.90L1092.42 0.90L1092.42 0.90Q1090.80 0.90 1088.32 0.54L1088.32 0.54L1088.32 0.54Q1083.46-0.22 1081.98-0.22L1081.98-0.22L1081.98-0.22Q1080.49-0.22 1079.91-0.16L1079.91-0.16L1079.91-0.16Q1079.32-0.09 1078.38 0L1078.38 0L1083.91-29.70L1103.31-29.70L1103.31-29.70Q1103.31-26.95 1101.98-25.52L1101.98-25.52L1101.98-25.52Q1100.65-24.07 1098.04-24.07L1098.04-24.07L1098.04-24.07Q1095.43-24.07 1092.78-25.29L1092.78-25.29L1091.38-17.41L1099.39-17.41L1099.39-17.41Q1099.39-15.03 1098.22-13.70L1098.22-13.70L1098.22-13.70Q1097.05-12.38 1095.10-12.38L1095.10-12.38L1095.10-12.38Q1093.14-12.38 1091.92-12.82L1091.92-12.82L1091.92-12.82Q1090.71-13.28 1090.57-13.41L1090.57-13.41L1088.95-4.91L1088.95-4.91Q1090.03-4.77 1092.06-4.77L1092.06-4.77L1092.06-4.77Q1095.52-4.77 1098.00-6.93ZM1132.74-23.85L1132.74-23.85L1132.74-23.85Q1129.09-23.85 1126.44-25.06L1126.44-25.06L1125.00-17.77L1133.68-17.77L1133.68-17.77Q1133.68-15.39 1132.49-13.88L1132.49-13.88L1132.49-13.88Q1131.30-12.38 1129.14-12.38L1129.14-12.38L1129.14-12.38Q1126.80-12.38 1124.64-13.23L1124.64-13.23L1124.64-13.23Q1124.19-13.41 1124.14-13.46L1124.14-13.46L1121.58 0L1111.77 0L1117.48-29.70L1137.55-29.70L1137.55-29.70Q1137.55-26.95 1136.27-25.40L1136.27-25.40L1136.27-25.40Q1134.99-23.85 1132.74-23.85ZM1137.10-10.98L1137.10-10.98L1137.10-10.98Q1137.10-19.48 1141.51-24.84L1141.51-24.84L1141.51-24.84Q1146.19-30.64 1154.34-30.64L1154.34-30.64L1154.34-30.64Q1160.23-30.64 1163.20-27.79L1163.20-27.79L1163.20-27.79Q1166.17-24.93 1166.17-18.90L1166.17-18.90L1166.17-18.90Q1166.17-9.72 1161.49-4.37L1161.49-4.37L1161.49-4.37Q1156.86 0.90 1149.07 0.90L1149.07 0.90L1149.07 0.90Q1143.00 0.90 1140.05-2.14L1140.05-2.14L1140.05-2.14Q1137.10-5.17 1137.10-10.98ZM1148.94-20.29L1148.94-20.29L1148.94-20.29Q1146.91-12.20 1146.91-5.80L1146.91-5.80L1146.91-5.80Q1146.91-4.27 1147.43-3.28L1147.43-3.28L1147.43-3.28Q1147.95-2.29 1149.32-2.29L1149.32-2.29L1149.32-2.29Q1150.69-2.29 1151.55-2.95L1151.55-2.95L1151.55-2.95Q1152.40-3.60 1153.08-5.08L1153.08-5.08L1153.08-5.08Q1154.16-7.51 1155.17-12.67L1155.17-12.67L1155.17-12.67Q1156.18-17.82 1156.27-19.96L1156.27-19.96L1156.27-19.96Q1156.36-22.09 1156.36-23.71L1156.36-23.71L1156.36-23.71Q1156.36-25.33 1155.87-26.37L1155.87-26.37L1155.87-26.37Q1155.37-27.40 1154.05-27.40L1154.05-27.40L1154.05-27.40Q1152.72-27.40 1151.82-26.59L1151.82-26.59L1151.82-26.59Q1150.15-25.06 1148.94-20.29ZM1177.60 0L1167.97 0L1173.46-29.56L1173.46-29.56Q1177.92-30.06 1184.42-30.06L1184.42-30.06L1184.42-30.06Q1190.92-30.06 1193.94-28.17L1193.94-28.17L1193.94-28.17Q1196.95-26.28 1196.95-22.48L1196.95-22.48L1196.95-22.48Q1196.95-18.68 1195.00-16.29L1195.00-16.29L1195.00-16.29Q1193.04-13.90 1189.66-13.14L1189.66-13.14L1189.66-13.14Q1190.43-9.40 1192.18-6.39L1192.18-6.39L1192.18-6.39Q1193.80-3.55 1195.69-2.65L1195.69-2.65L1195.69-2.65Q1195.02-0.77 1193.65 0.07L1193.65 0.07L1193.65 0.07Q1192.27 0.90 1190.32 0.90L1190.32 0.90L1190.32 0.90Q1188.36 0.90 1186.83-0.25L1186.83-0.25L1186.83-0.25Q1185.30-1.40 1184.08-3.51L1184.08-3.51L1184.08-3.51Q1181.52-8.10 1181.25-15.34L1181.25-15.34L1181.56-15.34L1181.56-15.34Q1184.89-15.43 1186.56-17.17L1186.56-17.17L1186.56-17.17Q1188.22-18.90 1188.22-22.54L1188.22-22.54L1188.22-22.54Q1188.22-27.09 1184.40-27.27L1184.40-27.27L1183.41-27.27L1183.41-27.27Q1183.00-27.27 1182.78-27.22L1182.78-27.22L1177.60 0ZM1212.57 0L1215.18-13.23L1215.18-13.23Q1213.87-25.43 1209.28-28.04L1209.28-28.04L1209.28-28.04Q1210.23-29.20 1211.76-29.86L1211.76-29.86L1211.76-29.86Q1213.29-30.51 1215.13-30.51L1215.13-30.51L1215.13-30.51Q1216.98-30.51 1218.37-29.86L1218.37-29.86L1218.37-29.86Q1219.77-29.20 1220.67-27.81L1220.67-27.81L1220.67-27.81Q1222.38-25.15 1222.38-18.81L1222.38-18.81L1222.38-15.57L1222.38-15.57Q1225.08-23.49 1227.78-26.91L1227.78-26.91L1227.78-26.91Q1230.52-30.42 1233.94-30.42L1233.94-30.42L1233.94-30.42Q1235.29-30.42 1236.19-29.72L1236.19-29.72L1236.19-29.72Q1237.09-29.02 1237.54-27.99L1237.54-27.99L1237.54-27.99Q1234.08-26.46 1230.75-22.05L1230.75-22.05L1230.75-22.05Q1227.42-17.64 1225.26-11.47L1225.26-11.47L1222.60 0L1212.57 0ZM1235.07-10.98L1235.07-10.98L1235.07-10.98Q1235.07-19.48 1239.48-24.84L1239.48-24.84L1239.48-24.84Q1244.16-30.64 1252.30-30.64L1252.30-30.64L1252.30-30.64Q1258.20-30.64 1261.17-27.79L1261.17-27.79L1261.17-27.79Q1264.14-24.93 1264.14-18.90L1264.14-18.90L1264.14-18.90Q1264.14-9.72 1259.46-4.37L1259.46-4.37L1259.46-4.37Q1254.82 0.90 1247.04 0.90L1247.04 0.90L1247.04 0.90Q1240.96 0.90 1238.02-2.14L1238.02-2.14L1238.02-2.14Q1235.07-5.17 1235.07-10.98ZM1246.90-20.29L1246.90-20.29L1246.90-20.29Q1244.88-12.20 1244.88-5.80L1244.88-5.80L1244.88-5.80Q1244.88-4.27 1245.40-3.28L1245.40-3.28L1245.40-3.28Q1245.91-2.29 1247.29-2.29L1247.29-2.29L1247.29-2.29Q1248.66-2.29 1249.51-2.95L1249.51-2.95L1249.51-2.95Q1250.37-3.60 1251.04-5.08L1251.04-5.08L1251.04-5.08Q1252.12-7.51 1253.14-12.67L1253.14-12.67L1253.14-12.67Q1254.15-17.82 1254.24-19.96L1254.24-19.96L1254.24-19.96Q1254.33-22.09 1254.33-23.71L1254.33-23.71L1254.33-23.71Q1254.33-25.33 1253.83-26.37L1253.83-26.37L1253.83-26.37Q1253.34-27.40 1252.01-27.40L1252.01-27.40L1252.01-27.40Q1250.68-27.40 1249.78-26.59L1249.78-26.59L1249.78-26.59Q1248.12-25.06 1246.90-20.29ZM1267.20-6.66L1267.20-6.66L1267.20-6.66Q1267.20-8.41 1267.65-10.66L1267.65-10.66L1271.29-29.70L1281.24-29.70L1277.64-10.53L1277.64-10.53Q1277.23-8.41 1277.23-6.86L1277.23-6.86L1277.23-6.86Q1277.23-5.31 1277.89-4.50L1277.89-4.50L1277.89-4.50Q1278.54-3.69 1279.75-3.69L1279.75-3.69L1279.75-3.69Q1280.97-3.69 1281.73-4.00L1281.73-4.00L1281.73-4.00Q1282.50-4.32 1283.13-5.08L1283.13-5.08L1283.13-5.08Q1284.34-6.61 1285.11-10.53L1285.11-10.53L1288.75-29.70L1295.55-29.70L1291.95-10.57L1291.95-10.57Q1290.69-4.18 1287.22-1.62L1287.22-1.62L1287.22-1.62Q1283.85 0.90 1277.19 0.90L1277.19 0.90L1277.19 0.90Q1272.19 0.90 1269.54-1.26L1269.54-1.26L1269.54-1.26Q1267.20-3.15 1267.20-6.66ZM1305.67 0L1296.04 0L1301.53-29.56L1301.53-29.56Q1305.99-30.06 1312.49-30.06L1312.49-30.06L1312.49-30.06Q1318.99-30.06 1322.01-28.17L1322.01-28.17L1322.01-28.17Q1325.02-26.28 1325.02-22.48L1325.02-22.48L1325.02-22.48Q1325.02-18.68 1323.07-16.29L1323.07-16.29L1323.07-16.29Q1321.11-13.90 1317.73-13.14L1317.73-13.14L1317.73-13.14Q1318.50-9.40 1320.25-6.39L1320.25-6.39L1320.25-6.39Q1321.87-3.55 1323.76-2.65L1323.76-2.65L1323.76-2.65Q1323.09-0.77 1321.72 0.07L1321.72 0.07L1321.72 0.07Q1320.34 0.90 1318.39 0.90L1318.39 0.90L1318.39 0.90Q1316.43 0.90 1314.90-0.25L1314.90-0.25L1314.90-0.25Q1313.37-1.40 1312.15-3.51L1312.15-3.51L1312.15-3.51Q1309.59-8.10 1309.32-15.34L1309.32-15.34L1309.63-15.34L1309.63-15.34Q1312.96-15.43 1314.63-17.17L1314.63-17.17L1314.63-17.17Q1316.29-18.90 1316.29-22.54L1316.29-22.54L1316.29-22.54Q1316.29-27.09 1312.47-27.27L1312.47-27.27L1311.48-27.27L1311.48-27.27Q1311.07-27.27 1310.85-27.22L1310.85-27.22L1305.67 0ZM1359.85-9.31L1359.85-9.31L1359.85-9.31Q1361.02-8.46 1361.02-6.64L1361.02-6.64L1361.02-6.64Q1361.02-4.81 1360.24-3.53L1360.24-3.53L1360.24-3.53Q1359.45-2.25 1357.92-1.26L1357.92-1.26L1357.92-1.26Q1354.63 0.85 1348.90 0.85L1348.90 0.85L1348.90 0.85Q1343.16 0.85 1340.03-2.14L1340.03-2.14L1340.03-2.14Q1336.90-5.13 1336.90-10.44L1336.90-10.44L1336.90-10.44Q1336.90-17.95 1340.82-23.67L1340.82-23.67L1340.82-23.67Q1343.79-27.90 1349.10-29.70L1349.10-29.70L1349.10-29.70Q1351.84-30.60 1354.54-30.60L1354.54-30.60L1354.54-30.60Q1357.24-30.60 1358.91-30.24L1358.91-30.24L1358.91-30.24Q1360.57-29.88 1361.83-29.16L1361.83-29.16L1361.83-29.16Q1364.58-27.58 1364.58-25.06L1364.58-25.06L1364.58-25.06Q1364.58-22.77 1362.42-21.06L1362.42-21.06L1362.42-21.06Q1360.44-19.53 1358.82-19.53L1358.82-19.53L1358.82-19.53Q1357.20-19.53 1356.52-19.75L1356.52-19.75L1356.52-19.75Q1356.70-21.38 1356.70-22.43L1356.70-22.43L1356.70-22.43Q1356.70-23.49 1356.66-24.25L1356.66-24.25L1356.66-24.25Q1356.61-25.02 1356.39-25.74L1356.39-25.74L1356.39-25.74Q1355.94-27.40 1354.57-27.40L1354.57-27.40L1354.57-27.40Q1353.19-27.40 1351.82-26.12L1351.82-26.12L1351.82-26.12Q1350.45-24.84 1349.28-22.68L1349.28-22.68L1349.28-22.68Q1346.62-17.77 1346.62-11.97L1346.62-11.97L1346.62-11.97Q1346.62-9.18 1348.20-7.58L1348.20-7.58L1348.20-7.58Q1349.77-5.98 1353.15-5.98L1353.15-5.98L1353.15-5.98Q1355.67-5.98 1358.05-7.65L1358.05-7.65L1358.05-7.65Q1359.09-8.37 1359.85-9.31ZM1384.51 0.90L1384.51 0.90L1384.51 0.90Q1378.75 0.90 1378.21-7.29L1378.21-7.29L1370.47-7.29L1370.47-7.29Q1369.57-5.22 1368.94-3.42L1368.94-3.42L1367.77 0L1361.47 0L1375.65-29.70L1385.32-29.70L1387.21-7.83L1387.21-7.83Q1387.66-3.10 1389.46-1.71L1389.46-1.71L1389.46-1.71Q1388.16 0.90 1384.51 0.90ZM1374.34-16.29L1371.87-10.57L1378.08-10.57L1377.54-22.14L1377.54-23.36L1374.34-16.29ZM1401.30 0L1391.67 0L1397.16-29.56L1397.16-29.56Q1401.61-30.06 1408.12-30.06L1408.12-30.06L1408.12-30.06Q1414.62-30.06 1417.63-28.17L1417.63-28.17L1417.63-28.17Q1420.65-26.28 1420.65-22.48L1420.65-22.48L1420.65-22.48Q1420.65-18.68 1418.69-16.29L1418.69-16.29L1418.69-16.29Q1416.73-13.90 1413.36-13.14L1413.36-13.14L1413.36-13.14Q1414.12-9.40 1415.88-6.39L1415.88-6.39L1415.88-6.39Q1417.50-3.55 1419.39-2.65L1419.39-2.65L1419.39-2.65Q1418.71-0.77 1417.34 0.07L1417.34 0.07L1417.34 0.07Q1415.97 0.90 1414.01 0.90L1414.01 0.90L1414.01 0.90Q1412.05 0.90 1410.52-0.25L1410.52-0.25L1410.52-0.25Q1408.99-1.40 1407.78-3.51L1407.78-3.51L1407.78-3.51Q1405.21-8.10 1404.94-15.34L1404.94-15.34L1405.26-15.34L1405.26-15.34Q1408.59-15.43 1410.25-17.17L1410.25-17.17L1410.25-17.17Q1411.92-18.90 1411.92-22.54L1411.92-22.54L1411.92-22.54Q1411.92-27.09 1408.09-27.27L1408.09-27.27L1407.10-27.27L1407.10-27.27Q1406.70-27.27 1406.47-27.22L1406.47-27.22L1401.30 0ZM1441.93-6.93L1441.93-6.93L1441.93-6.93Q1442.79-5.85 1442.79-4.09L1442.79-4.09L1442.79-4.09Q1442.79-1.67 1440.99-0.38L1440.99-0.38L1440.99-0.38Q1439.19 0.90 1436.35 0.90L1436.35 0.90L1436.35 0.90Q1434.73 0.90 1432.26 0.54L1432.26 0.54L1432.26 0.54Q1427.40-0.22 1425.91-0.22L1425.91-0.22L1425.91-0.22Q1424.43-0.22 1423.84-0.16L1423.84-0.16L1423.84-0.16Q1423.26-0.09 1422.31 0L1422.31 0L1427.85-29.70L1447.24-29.70L1447.24-29.70Q1447.24-26.95 1445.92-25.52L1445.92-25.52L1445.92-25.52Q1444.59-24.07 1441.98-24.07L1441.98-24.07L1441.98-24.07Q1439.37-24.07 1436.71-25.29L1436.71-25.29L1435.32-17.41L1443.33-17.41L1443.33-17.41Q1443.33-15.03 1442.16-13.70L1442.16-13.70L1442.16-13.70Q1440.99-12.38 1439.03-12.38L1439.03-12.38L1439.03-12.38Q1437.07-12.38 1435.86-12.82L1435.86-12.82L1435.86-12.82Q1434.64-13.28 1434.51-13.41L1434.51-13.41L1432.89-4.91L1432.89-4.91Q1433.97-4.77 1435.99-4.77L1435.99-4.77L1435.99-4.77Q1439.46-4.77 1441.93-6.93ZM1466.14-6.93L1466.14-6.93L1466.14-6.93Q1467.00-5.85 1467.00-4.09L1467.00-4.09L1467.00-4.09Q1467.00-1.67 1465.20-0.38L1465.20-0.38L1465.20-0.38Q1463.40 0.90 1460.56 0.90L1460.56 0.90L1460.56 0.90Q1458.94 0.90 1456.47 0.54L1456.47 0.54L1456.47 0.54Q1451.61-0.22 1450.12-0.22L1450.12-0.22L1450.12-0.22Q1448.64-0.22 1448.05-0.16L1448.05-0.16L1448.05-0.16Q1447.47-0.09 1446.52 0L1446.52 0L1452.06-29.70L1471.45-29.70L1471.45-29.70Q1471.45-26.95 1470.13-25.52L1470.13-25.52L1470.13-25.52Q1468.80-24.07 1466.19-24.07L1466.19-24.07L1466.19-24.07Q1463.58-24.07 1460.92-25.29L1460.92-25.29L1459.53-17.41L1467.54-17.41L1467.54-17.41Q1467.54-15.03 1466.37-13.70L1466.37-13.70L1466.37-13.70Q1465.20-12.38 1463.24-12.38L1463.24-12.38L1463.24-12.38Q1461.28-12.38 1460.07-12.82L1460.07-12.82L1460.07-12.82Q1458.85-13.28 1458.72-13.41L1458.72-13.41L1457.10-4.91L1457.10-4.91Q1458.18-4.77 1460.20-4.77L1460.20-4.77L1460.20-4.77Q1463.67-4.77 1466.14-6.93ZM1480.36 0L1470.73 0L1476.22-29.56L1476.22-29.56Q1480.68-30.06 1487.18-30.06L1487.18-30.06L1487.18-30.06Q1493.68-30.06 1496.70-28.17L1496.70-28.17L1496.70-28.17Q1499.71-26.28 1499.71-22.48L1499.71-22.48L1499.71-22.48Q1499.71-18.68 1497.76-16.29L1497.76-16.29L1497.76-16.29Q1495.80-13.90 1492.42-13.14L1492.42-13.14L1492.42-13.14Q1493.19-9.40 1494.94-6.39L1494.94-6.39L1494.94-6.39Q1496.56-3.55 1498.45-2.65L1498.45-2.65L1498.45-2.65Q1497.78-0.77 1496.41 0.07L1496.41 0.07L1496.41 0.07Q1495.03 0.90 1493.08 0.90L1493.08 0.90L1493.08 0.90Q1491.12 0.90 1489.59-0.25L1489.59-0.25L1489.59-0.25Q1488.06-1.40 1486.84-3.51L1486.84-3.51L1486.84-3.51Q1484.28-8.10 1484.01-15.34L1484.01-15.34L1484.32-15.34L1484.32-15.34Q1487.65-15.43 1489.32-17.17L1489.32-17.17L1489.32-17.17Q1490.98-18.90 1490.98-22.54L1490.98-22.54L1490.98-22.54Q1490.98-27.09 1487.16-27.27L1487.16-27.27L1486.17-27.27L1486.17-27.27Q1485.76-27.27 1485.54-27.22L1485.54-27.22L1480.36 0Z" fill="#671355"></path></g></g><style>text {
  font-size: 64px;
  font-family: Arial Black;
  dominant-baseline: central;
  text-anchor: middle;
}</style></svg>